<mxfile host="65bd71144e">
    <diagram id="9GKttMeaVymxejnS9twu" name="Pagina-1">
        <mxGraphModel dx="1774" dy="795" grid="0" gridSize="10" guides="1" tooltips="1" connect="1" arrows="1" fold="1" page="0" pageScale="1" pageWidth="827" pageHeight="1169" math="0" shadow="0">
            <root>
                <mxCell id="0"/>
                <mxCell id="1" parent="0"/>
                <mxCell id="-d8aVRQF-1La3N2QzhJ9-20" value="Dipartimenti" style="shape=table;startSize=30;container=1;collapsible=0;childLayout=tableLayout;" parent="1" vertex="1">
                    <mxGeometry x="217" y="40" width="394" height="110" as="geometry"/>
                </mxCell>
                <mxCell id="-d8aVRQF-1La3N2QzhJ9-21" value="" style="shape=tableRow;horizontal=0;startSize=0;swimlaneHead=0;swimlaneBody=0;top=0;left=0;bottom=0;right=0;collapsible=0;dropTarget=0;fillColor=none;points=[[0,0.5],[1,0.5]];portConstraint=eastwest;" parent="-d8aVRQF-1La3N2QzhJ9-20" vertex="1">
                    <mxGeometry y="30" width="394" height="40" as="geometry"/>
                </mxCell>
                <mxCell id="-d8aVRQF-1La3N2QzhJ9-22" value="ID" style="shape=partialRectangle;html=1;whiteSpace=wrap;connectable=0;overflow=hidden;fillColor=none;top=0;left=0;bottom=0;right=0;pointerEvents=1;" parent="-d8aVRQF-1La3N2QzhJ9-21" vertex="1">
                    <mxGeometry width="79" height="40" as="geometry">
                        <mxRectangle width="79" height="40" as="alternateBounds"/>
                    </mxGeometry>
                </mxCell>
                <mxCell id="-d8aVRQF-1La3N2QzhJ9-23" value="1" style="shape=partialRectangle;html=1;whiteSpace=wrap;connectable=0;overflow=hidden;fillColor=none;top=0;left=0;bottom=0;right=0;pointerEvents=1;" parent="-d8aVRQF-1La3N2QzhJ9-21" vertex="1">
                    <mxGeometry x="79" width="79" height="40" as="geometry">
                        <mxRectangle width="79" height="40" as="alternateBounds"/>
                    </mxGeometry>
                </mxCell>
                <mxCell id="-d8aVRQF-1La3N2QzhJ9-24" value="2" style="shape=partialRectangle;html=1;whiteSpace=wrap;connectable=0;overflow=hidden;fillColor=none;top=0;left=0;bottom=0;right=0;pointerEvents=1;" parent="-d8aVRQF-1La3N2QzhJ9-21" vertex="1">
                    <mxGeometry x="158" width="78" height="40" as="geometry">
                        <mxRectangle width="78" height="40" as="alternateBounds"/>
                    </mxGeometry>
                </mxCell>
                <mxCell id="-d8aVRQF-1La3N2QzhJ9-25" value="3" style="shape=partialRectangle;html=1;whiteSpace=wrap;connectable=0;overflow=hidden;fillColor=none;top=0;left=0;bottom=0;right=0;pointerEvents=1;" parent="-d8aVRQF-1La3N2QzhJ9-21" vertex="1">
                    <mxGeometry x="236" width="79" height="40" as="geometry">
                        <mxRectangle width="79" height="40" as="alternateBounds"/>
                    </mxGeometry>
                </mxCell>
                <mxCell id="-d8aVRQF-1La3N2QzhJ9-26" value="4" style="shape=partialRectangle;html=1;whiteSpace=wrap;connectable=0;overflow=hidden;fillColor=none;top=0;left=0;bottom=0;right=0;pointerEvents=1;" parent="-d8aVRQF-1La3N2QzhJ9-21" vertex="1">
                    <mxGeometry x="315" width="79" height="40" as="geometry">
                        <mxRectangle width="79" height="40" as="alternateBounds"/>
                    </mxGeometry>
                </mxCell>
                <mxCell id="-d8aVRQF-1La3N2QzhJ9-27" value="" style="shape=tableRow;horizontal=0;startSize=0;swimlaneHead=0;swimlaneBody=0;top=0;left=0;bottom=0;right=0;collapsible=0;dropTarget=0;fillColor=none;points=[[0,0.5],[1,0.5]];portConstraint=eastwest;" parent="-d8aVRQF-1La3N2QzhJ9-20" vertex="1">
                    <mxGeometry y="70" width="394" height="40" as="geometry"/>
                </mxCell>
                <mxCell id="-d8aVRQF-1La3N2QzhJ9-28" value="NOME" style="shape=partialRectangle;html=1;whiteSpace=wrap;connectable=0;overflow=hidden;fillColor=none;top=0;left=0;bottom=0;right=0;pointerEvents=1;" parent="-d8aVRQF-1La3N2QzhJ9-27" vertex="1">
                    <mxGeometry width="79" height="40" as="geometry">
                        <mxRectangle width="79" height="40" as="alternateBounds"/>
                    </mxGeometry>
                </mxCell>
                <mxCell id="-d8aVRQF-1La3N2QzhJ9-29" value="Lettere" style="shape=partialRectangle;html=1;whiteSpace=wrap;connectable=0;overflow=hidden;fillColor=none;top=0;left=0;bottom=0;right=0;pointerEvents=1;" parent="-d8aVRQF-1La3N2QzhJ9-27" vertex="1">
                    <mxGeometry x="79" width="79" height="40" as="geometry">
                        <mxRectangle width="79" height="40" as="alternateBounds"/>
                    </mxGeometry>
                </mxCell>
                <mxCell id="-d8aVRQF-1La3N2QzhJ9-30" value="Matematica" style="shape=partialRectangle;html=1;whiteSpace=wrap;connectable=0;overflow=hidden;fillColor=none;top=0;left=0;bottom=0;right=0;pointerEvents=1;" parent="-d8aVRQF-1La3N2QzhJ9-27" vertex="1">
                    <mxGeometry x="158" width="78" height="40" as="geometry">
                        <mxRectangle width="78" height="40" as="alternateBounds"/>
                    </mxGeometry>
                </mxCell>
                <mxCell id="-d8aVRQF-1La3N2QzhJ9-31" value="Ingegneria" style="shape=partialRectangle;html=1;whiteSpace=wrap;connectable=0;overflow=hidden;fillColor=none;top=0;left=0;bottom=0;right=0;pointerEvents=1;" parent="-d8aVRQF-1La3N2QzhJ9-27" vertex="1">
                    <mxGeometry x="236" width="79" height="40" as="geometry">
                        <mxRectangle width="79" height="40" as="alternateBounds"/>
                    </mxGeometry>
                </mxCell>
                <mxCell id="-d8aVRQF-1La3N2QzhJ9-32" value="Filosofia" style="shape=partialRectangle;html=1;whiteSpace=wrap;connectable=0;overflow=hidden;fillColor=none;top=0;left=0;bottom=0;right=0;pointerEvents=1;" parent="-d8aVRQF-1La3N2QzhJ9-27" vertex="1">
                    <mxGeometry x="315" width="79" height="40" as="geometry">
                        <mxRectangle width="79" height="40" as="alternateBounds"/>
                    </mxGeometry>
                </mxCell>
                <mxCell id="-d8aVRQF-1La3N2QzhJ9-33" value="Corsi Di Laurea" style="shape=table;startSize=30;container=1;collapsible=0;childLayout=tableLayout;" parent="1" vertex="1">
                    <mxGeometry x="219" y="230" width="390" height="110" as="geometry"/>
                </mxCell>
                <mxCell id="-d8aVRQF-1La3N2QzhJ9-34" value="" style="shape=tableRow;horizontal=0;startSize=0;swimlaneHead=0;swimlaneBody=0;top=0;left=0;bottom=0;right=0;collapsible=0;dropTarget=0;fillColor=none;points=[[0,0.5],[1,0.5]];portConstraint=eastwest;" parent="-d8aVRQF-1La3N2QzhJ9-33" vertex="1">
                    <mxGeometry y="30" width="390" height="40" as="geometry"/>
                </mxCell>
                <mxCell id="-d8aVRQF-1La3N2QzhJ9-35" value="ID" style="shape=partialRectangle;html=1;whiteSpace=wrap;connectable=0;overflow=hidden;fillColor=none;top=0;left=0;bottom=0;right=0;pointerEvents=1;" parent="-d8aVRQF-1La3N2QzhJ9-34" vertex="1">
                    <mxGeometry width="78" height="40" as="geometry">
                        <mxRectangle width="78" height="40" as="alternateBounds"/>
                    </mxGeometry>
                </mxCell>
                <mxCell id="-d8aVRQF-1La3N2QzhJ9-36" value="1" style="shape=partialRectangle;html=1;whiteSpace=wrap;connectable=0;overflow=hidden;fillColor=none;top=0;left=0;bottom=0;right=0;pointerEvents=1;" parent="-d8aVRQF-1La3N2QzhJ9-34" vertex="1">
                    <mxGeometry x="78" width="78" height="40" as="geometry">
                        <mxRectangle width="78" height="40" as="alternateBounds"/>
                    </mxGeometry>
                </mxCell>
                <mxCell id="-d8aVRQF-1La3N2QzhJ9-37" value="2" style="shape=partialRectangle;html=1;whiteSpace=wrap;connectable=0;overflow=hidden;fillColor=none;top=0;left=0;bottom=0;right=0;pointerEvents=1;" parent="-d8aVRQF-1La3N2QzhJ9-34" vertex="1">
                    <mxGeometry x="156" width="78" height="40" as="geometry">
                        <mxRectangle width="78" height="40" as="alternateBounds"/>
                    </mxGeometry>
                </mxCell>
                <mxCell id="-d8aVRQF-1La3N2QzhJ9-38" value="3" style="shape=partialRectangle;html=1;whiteSpace=wrap;connectable=0;overflow=hidden;fillColor=none;top=0;left=0;bottom=0;right=0;pointerEvents=1;" parent="-d8aVRQF-1La3N2QzhJ9-34" vertex="1">
                    <mxGeometry x="234" width="78" height="40" as="geometry">
                        <mxRectangle width="78" height="40" as="alternateBounds"/>
                    </mxGeometry>
                </mxCell>
                <mxCell id="-d8aVRQF-1La3N2QzhJ9-39" value="4" style="shape=partialRectangle;html=1;whiteSpace=wrap;connectable=0;overflow=hidden;fillColor=none;top=0;left=0;bottom=0;right=0;pointerEvents=1;" parent="-d8aVRQF-1La3N2QzhJ9-34" vertex="1">
                    <mxGeometry x="312" width="78" height="40" as="geometry">
                        <mxRectangle width="78" height="40" as="alternateBounds"/>
                    </mxGeometry>
                </mxCell>
                <mxCell id="-d8aVRQF-1La3N2QzhJ9-40" value="" style="shape=tableRow;horizontal=0;startSize=0;swimlaneHead=0;swimlaneBody=0;top=0;left=0;bottom=0;right=0;collapsible=0;dropTarget=0;fillColor=none;points=[[0,0.5],[1,0.5]];portConstraint=eastwest;" parent="-d8aVRQF-1La3N2QzhJ9-33" vertex="1">
                    <mxGeometry y="70" width="390" height="40" as="geometry"/>
                </mxCell>
                <mxCell id="-d8aVRQF-1La3N2QzhJ9-41" value="NOME" style="shape=partialRectangle;html=1;whiteSpace=wrap;connectable=0;overflow=hidden;fillColor=none;top=0;left=0;bottom=0;right=0;pointerEvents=1;" parent="-d8aVRQF-1La3N2QzhJ9-40" vertex="1">
                    <mxGeometry width="78" height="40" as="geometry">
                        <mxRectangle width="78" height="40" as="alternateBounds"/>
                    </mxGeometry>
                </mxCell>
                <mxCell id="-d8aVRQF-1La3N2QzhJ9-42" value="Letterature Classiche" style="shape=partialRectangle;html=1;whiteSpace=wrap;connectable=0;overflow=hidden;fillColor=none;top=0;left=0;bottom=0;right=0;pointerEvents=1;" parent="-d8aVRQF-1La3N2QzhJ9-40" vertex="1">
                    <mxGeometry x="78" width="78" height="40" as="geometry">
                        <mxRectangle width="78" height="40" as="alternateBounds"/>
                    </mxGeometry>
                </mxCell>
                <mxCell id="-d8aVRQF-1La3N2QzhJ9-43" value="Informatica" style="shape=partialRectangle;html=1;whiteSpace=wrap;connectable=0;overflow=hidden;fillColor=none;top=0;left=0;bottom=0;right=0;pointerEvents=1;" parent="-d8aVRQF-1La3N2QzhJ9-40" vertex="1">
                    <mxGeometry x="156" width="78" height="40" as="geometry">
                        <mxRectangle width="78" height="40" as="alternateBounds"/>
                    </mxGeometry>
                </mxCell>
                <mxCell id="-d8aVRQF-1La3N2QzhJ9-44" value="Ingegneria Elettronica" style="shape=partialRectangle;html=1;whiteSpace=wrap;connectable=0;overflow=hidden;fillColor=none;top=0;left=0;bottom=0;right=0;pointerEvents=1;" parent="-d8aVRQF-1La3N2QzhJ9-40" vertex="1">
                    <mxGeometry x="234" width="78" height="40" as="geometry">
                        <mxRectangle width="78" height="40" as="alternateBounds"/>
                    </mxGeometry>
                </mxCell>
                <mxCell id="-d8aVRQF-1La3N2QzhJ9-45" value="Civiltà" style="shape=partialRectangle;html=1;whiteSpace=wrap;connectable=0;overflow=hidden;fillColor=none;top=0;left=0;bottom=0;right=0;pointerEvents=1;" parent="-d8aVRQF-1La3N2QzhJ9-40" vertex="1">
                    <mxGeometry x="312" width="78" height="40" as="geometry">
                        <mxRectangle width="78" height="40" as="alternateBounds"/>
                    </mxGeometry>
                </mxCell>
                <mxCell id="-d8aVRQF-1La3N2QzhJ9-46" value="Insegnanti" style="shape=table;startSize=30;container=1;collapsible=0;childLayout=tableLayout;labelBackgroundColor=none;" parent="1" vertex="1">
                    <mxGeometry x="730" y="430" width="440" height="150" as="geometry"/>
                </mxCell>
                <mxCell id="-d8aVRQF-1La3N2QzhJ9-47" value="" style="shape=tableRow;horizontal=0;startSize=0;swimlaneHead=0;swimlaneBody=0;top=0;left=0;bottom=0;right=0;collapsible=0;dropTarget=0;fillColor=none;points=[[0,0.5],[1,0.5]];portConstraint=eastwest;labelBackgroundColor=none;" parent="-d8aVRQF-1La3N2QzhJ9-46" vertex="1">
                    <mxGeometry y="30" width="440" height="40" as="geometry"/>
                </mxCell>
                <mxCell id="-d8aVRQF-1La3N2QzhJ9-48" value="&lt;span style=&quot;&quot;&gt;ID&lt;/span&gt;" style="shape=partialRectangle;html=1;whiteSpace=wrap;connectable=0;overflow=hidden;fillColor=none;top=0;left=0;bottom=0;right=0;pointerEvents=1;labelBackgroundColor=none;" parent="-d8aVRQF-1La3N2QzhJ9-47" vertex="1">
                    <mxGeometry width="73" height="40" as="geometry">
                        <mxRectangle width="73" height="40" as="alternateBounds"/>
                    </mxGeometry>
                </mxCell>
                <mxCell id="-d8aVRQF-1La3N2QzhJ9-49" value="1" style="shape=partialRectangle;html=1;whiteSpace=wrap;connectable=0;overflow=hidden;fillColor=none;top=0;left=0;bottom=0;right=0;pointerEvents=1;labelBackgroundColor=none;" parent="-d8aVRQF-1La3N2QzhJ9-47" vertex="1">
                    <mxGeometry x="73" width="74" height="40" as="geometry">
                        <mxRectangle width="74" height="40" as="alternateBounds"/>
                    </mxGeometry>
                </mxCell>
                <mxCell id="-d8aVRQF-1La3N2QzhJ9-50" value="2" style="shape=partialRectangle;html=1;whiteSpace=wrap;connectable=0;overflow=hidden;fillColor=none;top=0;left=0;bottom=0;right=0;pointerEvents=1;labelBackgroundColor=none;" parent="-d8aVRQF-1La3N2QzhJ9-47" vertex="1">
                    <mxGeometry x="147" width="73" height="40" as="geometry">
                        <mxRectangle width="73" height="40" as="alternateBounds"/>
                    </mxGeometry>
                </mxCell>
                <mxCell id="-d8aVRQF-1La3N2QzhJ9-51" value="3" style="shape=partialRectangle;html=1;whiteSpace=wrap;connectable=0;overflow=hidden;fillColor=none;top=0;left=0;bottom=0;right=0;pointerEvents=1;labelBackgroundColor=none;" parent="-d8aVRQF-1La3N2QzhJ9-47" vertex="1">
                    <mxGeometry x="220" width="73" height="40" as="geometry">
                        <mxRectangle width="73" height="40" as="alternateBounds"/>
                    </mxGeometry>
                </mxCell>
                <mxCell id="-d8aVRQF-1La3N2QzhJ9-52" value="4" style="shape=partialRectangle;html=1;whiteSpace=wrap;connectable=0;overflow=hidden;fillColor=none;top=0;left=0;bottom=0;right=0;pointerEvents=1;labelBackgroundColor=none;" parent="-d8aVRQF-1La3N2QzhJ9-47" vertex="1">
                    <mxGeometry x="293" width="74" height="40" as="geometry">
                        <mxRectangle width="74" height="40" as="alternateBounds"/>
                    </mxGeometry>
                </mxCell>
                <mxCell id="-d8aVRQF-1La3N2QzhJ9-53" value="5" style="shape=partialRectangle;html=1;whiteSpace=wrap;connectable=0;overflow=hidden;fillColor=none;top=0;left=0;bottom=0;right=0;pointerEvents=1;labelBackgroundColor=none;" parent="-d8aVRQF-1La3N2QzhJ9-47" vertex="1">
                    <mxGeometry x="367" width="73" height="40" as="geometry">
                        <mxRectangle width="73" height="40" as="alternateBounds"/>
                    </mxGeometry>
                </mxCell>
                <mxCell id="-d8aVRQF-1La3N2QzhJ9-54" value="" style="shape=tableRow;horizontal=0;startSize=0;swimlaneHead=0;swimlaneBody=0;top=0;left=0;bottom=0;right=0;collapsible=0;dropTarget=0;fillColor=none;points=[[0,0.5],[1,0.5]];portConstraint=eastwest;labelBackgroundColor=none;" parent="-d8aVRQF-1La3N2QzhJ9-46" vertex="1">
                    <mxGeometry y="70" width="440" height="40" as="geometry"/>
                </mxCell>
                <mxCell id="-d8aVRQF-1La3N2QzhJ9-55" value="NOME" style="shape=partialRectangle;html=1;whiteSpace=wrap;connectable=0;overflow=hidden;fillColor=none;top=0;left=0;bottom=0;right=0;pointerEvents=1;labelBackgroundColor=none;" parent="-d8aVRQF-1La3N2QzhJ9-54" vertex="1">
                    <mxGeometry width="73" height="40" as="geometry">
                        <mxRectangle width="73" height="40" as="alternateBounds"/>
                    </mxGeometry>
                </mxCell>
                <mxCell id="-d8aVRQF-1La3N2QzhJ9-56" value="Luigi" style="shape=partialRectangle;html=1;whiteSpace=wrap;connectable=0;overflow=hidden;fillColor=none;top=0;left=0;bottom=0;right=0;pointerEvents=1;labelBackgroundColor=none;" parent="-d8aVRQF-1La3N2QzhJ9-54" vertex="1">
                    <mxGeometry x="73" width="74" height="40" as="geometry">
                        <mxRectangle width="74" height="40" as="alternateBounds"/>
                    </mxGeometry>
                </mxCell>
                <mxCell id="-d8aVRQF-1La3N2QzhJ9-57" value="Marco" style="shape=partialRectangle;html=1;whiteSpace=wrap;connectable=0;overflow=hidden;fillColor=none;top=0;left=0;bottom=0;right=0;pointerEvents=1;labelBackgroundColor=none;" parent="-d8aVRQF-1La3N2QzhJ9-54" vertex="1">
                    <mxGeometry x="147" width="73" height="40" as="geometry">
                        <mxRectangle width="73" height="40" as="alternateBounds"/>
                    </mxGeometry>
                </mxCell>
                <mxCell id="-d8aVRQF-1La3N2QzhJ9-58" value="Paolo" style="shape=partialRectangle;html=1;whiteSpace=wrap;connectable=0;overflow=hidden;fillColor=none;top=0;left=0;bottom=0;right=0;pointerEvents=1;labelBackgroundColor=none;" parent="-d8aVRQF-1La3N2QzhJ9-54" vertex="1">
                    <mxGeometry x="220" width="73" height="40" as="geometry">
                        <mxRectangle width="73" height="40" as="alternateBounds"/>
                    </mxGeometry>
                </mxCell>
                <mxCell id="-d8aVRQF-1La3N2QzhJ9-59" value="Lorenzo" style="shape=partialRectangle;html=1;whiteSpace=wrap;connectable=0;overflow=hidden;fillColor=none;top=0;left=0;bottom=0;right=0;pointerEvents=1;labelBackgroundColor=none;" parent="-d8aVRQF-1La3N2QzhJ9-54" vertex="1">
                    <mxGeometry x="293" width="74" height="40" as="geometry">
                        <mxRectangle width="74" height="40" as="alternateBounds"/>
                    </mxGeometry>
                </mxCell>
                <mxCell id="-d8aVRQF-1La3N2QzhJ9-60" value="Alessandro" style="shape=partialRectangle;html=1;whiteSpace=wrap;connectable=0;overflow=hidden;fillColor=none;top=0;left=0;bottom=0;right=0;pointerEvents=1;labelBackgroundColor=none;" parent="-d8aVRQF-1La3N2QzhJ9-54" vertex="1">
                    <mxGeometry x="367" width="73" height="40" as="geometry">
                        <mxRectangle width="73" height="40" as="alternateBounds"/>
                    </mxGeometry>
                </mxCell>
                <mxCell id="-d8aVRQF-1La3N2QzhJ9-61" value="" style="shape=tableRow;horizontal=0;startSize=0;swimlaneHead=0;swimlaneBody=0;top=0;left=0;bottom=0;right=0;collapsible=0;dropTarget=0;fillColor=none;points=[[0,0.5],[1,0.5]];portConstraint=eastwest;labelBackgroundColor=none;" parent="-d8aVRQF-1La3N2QzhJ9-46" vertex="1">
                    <mxGeometry y="110" width="440" height="40" as="geometry"/>
                </mxCell>
                <mxCell id="-d8aVRQF-1La3N2QzhJ9-62" value="COGNOME" style="shape=partialRectangle;html=1;whiteSpace=wrap;connectable=0;overflow=hidden;fillColor=none;top=0;left=0;bottom=0;right=0;pointerEvents=1;labelBackgroundColor=none;" parent="-d8aVRQF-1La3N2QzhJ9-61" vertex="1">
                    <mxGeometry width="73" height="40" as="geometry">
                        <mxRectangle width="73" height="40" as="alternateBounds"/>
                    </mxGeometry>
                </mxCell>
                <mxCell id="-d8aVRQF-1La3N2QzhJ9-63" value="Prencipe" style="shape=partialRectangle;html=1;whiteSpace=wrap;connectable=0;overflow=hidden;fillColor=none;top=0;left=0;bottom=0;right=0;pointerEvents=1;labelBackgroundColor=none;" parent="-d8aVRQF-1La3N2QzhJ9-61" vertex="1">
                    <mxGeometry x="73" width="74" height="40" as="geometry">
                        <mxRectangle width="74" height="40" as="alternateBounds"/>
                    </mxGeometry>
                </mxCell>
                <mxCell id="-d8aVRQF-1La3N2QzhJ9-64" value="Perta" style="shape=partialRectangle;html=1;whiteSpace=wrap;connectable=0;overflow=hidden;fillColor=none;top=0;left=0;bottom=0;right=0;pointerEvents=1;labelBackgroundColor=none;" parent="-d8aVRQF-1La3N2QzhJ9-61" vertex="1">
                    <mxGeometry x="147" width="73" height="40" as="geometry">
                        <mxRectangle width="73" height="40" as="alternateBounds"/>
                    </mxGeometry>
                </mxCell>
                <mxCell id="-d8aVRQF-1La3N2QzhJ9-65" value="Nicoletti" style="shape=partialRectangle;html=1;whiteSpace=wrap;connectable=0;overflow=hidden;fillColor=none;top=0;left=0;bottom=0;right=0;pointerEvents=1;labelBackgroundColor=none;" parent="-d8aVRQF-1La3N2QzhJ9-61" vertex="1">
                    <mxGeometry x="220" width="73" height="40" as="geometry">
                        <mxRectangle width="73" height="40" as="alternateBounds"/>
                    </mxGeometry>
                </mxCell>
                <mxCell id="-d8aVRQF-1La3N2QzhJ9-66" value="Bianconi" style="shape=partialRectangle;html=1;whiteSpace=wrap;connectable=0;overflow=hidden;fillColor=none;top=0;left=0;bottom=0;right=0;pointerEvents=1;labelBackgroundColor=none;" parent="-d8aVRQF-1La3N2QzhJ9-61" vertex="1">
                    <mxGeometry x="293" width="74" height="40" as="geometry">
                        <mxRectangle width="74" height="40" as="alternateBounds"/>
                    </mxGeometry>
                </mxCell>
                <mxCell id="-d8aVRQF-1La3N2QzhJ9-67" value="Lega" style="shape=partialRectangle;html=1;whiteSpace=wrap;connectable=0;overflow=hidden;fillColor=none;top=0;left=0;bottom=0;right=0;pointerEvents=1;labelBackgroundColor=none;" parent="-d8aVRQF-1La3N2QzhJ9-61" vertex="1">
                    <mxGeometry x="367" width="73" height="40" as="geometry">
                        <mxRectangle width="73" height="40" as="alternateBounds"/>
                    </mxGeometry>
                </mxCell>
                <mxCell id="-d8aVRQF-1La3N2QzhJ9-68" value="Diversi Corsi" style="shape=table;startSize=30;container=1;collapsible=0;childLayout=tableLayout;labelBackgroundColor=none;" parent="1" vertex="1">
                    <mxGeometry x="220" y="440" width="389" height="110" as="geometry"/>
                </mxCell>
                <mxCell id="-d8aVRQF-1La3N2QzhJ9-69" value="" style="shape=tableRow;horizontal=0;startSize=0;swimlaneHead=0;swimlaneBody=0;top=0;left=0;bottom=0;right=0;collapsible=0;dropTarget=0;fillColor=none;points=[[0,0.5],[1,0.5]];portConstraint=eastwest;labelBackgroundColor=none;" parent="-d8aVRQF-1La3N2QzhJ9-68" vertex="1">
                    <mxGeometry y="30" width="389" height="40" as="geometry"/>
                </mxCell>
                <mxCell id="-d8aVRQF-1La3N2QzhJ9-70" value="ID" style="shape=partialRectangle;html=1;whiteSpace=wrap;connectable=0;overflow=hidden;fillColor=none;top=0;left=0;bottom=0;right=0;pointerEvents=1;labelBackgroundColor=none;" parent="-d8aVRQF-1La3N2QzhJ9-69" vertex="1">
                    <mxGeometry width="78" height="40" as="geometry">
                        <mxRectangle width="78" height="40" as="alternateBounds"/>
                    </mxGeometry>
                </mxCell>
                <mxCell id="-d8aVRQF-1La3N2QzhJ9-71" value="1" style="shape=partialRectangle;html=1;whiteSpace=wrap;connectable=0;overflow=hidden;fillColor=none;top=0;left=0;bottom=0;right=0;pointerEvents=1;labelBackgroundColor=none;" parent="-d8aVRQF-1La3N2QzhJ9-69" vertex="1">
                    <mxGeometry x="78" width="78" height="40" as="geometry">
                        <mxRectangle width="78" height="40" as="alternateBounds"/>
                    </mxGeometry>
                </mxCell>
                <mxCell id="-d8aVRQF-1La3N2QzhJ9-72" value="2" style="shape=partialRectangle;html=1;whiteSpace=wrap;connectable=0;overflow=hidden;fillColor=none;top=0;left=0;bottom=0;right=0;pointerEvents=1;labelBackgroundColor=none;" parent="-d8aVRQF-1La3N2QzhJ9-69" vertex="1">
                    <mxGeometry x="156" width="77" height="40" as="geometry">
                        <mxRectangle width="77" height="40" as="alternateBounds"/>
                    </mxGeometry>
                </mxCell>
                <mxCell id="-d8aVRQF-1La3N2QzhJ9-73" value="3" style="shape=partialRectangle;html=1;whiteSpace=wrap;connectable=0;overflow=hidden;fillColor=none;top=0;left=0;bottom=0;right=0;pointerEvents=1;labelBackgroundColor=none;" parent="-d8aVRQF-1La3N2QzhJ9-69" vertex="1">
                    <mxGeometry x="233" width="78" height="40" as="geometry">
                        <mxRectangle width="78" height="40" as="alternateBounds"/>
                    </mxGeometry>
                </mxCell>
                <mxCell id="-d8aVRQF-1La3N2QzhJ9-74" value="4" style="shape=partialRectangle;html=1;whiteSpace=wrap;connectable=0;overflow=hidden;fillColor=none;top=0;left=0;bottom=0;right=0;pointerEvents=1;labelBackgroundColor=none;" parent="-d8aVRQF-1La3N2QzhJ9-69" vertex="1">
                    <mxGeometry x="311" width="78" height="40" as="geometry">
                        <mxRectangle width="78" height="40" as="alternateBounds"/>
                    </mxGeometry>
                </mxCell>
                <mxCell id="-d8aVRQF-1La3N2QzhJ9-75" value="" style="shape=tableRow;horizontal=0;startSize=0;swimlaneHead=0;swimlaneBody=0;top=0;left=0;bottom=0;right=0;collapsible=0;dropTarget=0;fillColor=none;points=[[0,0.5],[1,0.5]];portConstraint=eastwest;labelBackgroundColor=none;" parent="-d8aVRQF-1La3N2QzhJ9-68" vertex="1">
                    <mxGeometry y="70" width="389" height="40" as="geometry"/>
                </mxCell>
                <mxCell id="-d8aVRQF-1La3N2QzhJ9-76" value="NOME" style="shape=partialRectangle;html=1;whiteSpace=wrap;connectable=0;overflow=hidden;fillColor=none;top=0;left=0;bottom=0;right=0;pointerEvents=1;labelBackgroundColor=none;" parent="-d8aVRQF-1La3N2QzhJ9-75" vertex="1">
                    <mxGeometry width="78" height="40" as="geometry">
                        <mxRectangle width="78" height="40" as="alternateBounds"/>
                    </mxGeometry>
                </mxCell>
                <mxCell id="-d8aVRQF-1La3N2QzhJ9-77" value="Letteratura Latina" style="shape=partialRectangle;html=1;whiteSpace=wrap;connectable=0;overflow=hidden;fillColor=none;top=0;left=0;bottom=0;right=0;pointerEvents=1;labelBackgroundColor=none;" parent="-d8aVRQF-1La3N2QzhJ9-75" vertex="1">
                    <mxGeometry x="78" width="78" height="40" as="geometry">
                        <mxRectangle width="78" height="40" as="alternateBounds"/>
                    </mxGeometry>
                </mxCell>
                <mxCell id="-d8aVRQF-1La3N2QzhJ9-78" value="Sistemi Operativi 1" style="shape=partialRectangle;html=1;whiteSpace=wrap;connectable=0;overflow=hidden;fillColor=none;top=0;left=0;bottom=0;right=0;pointerEvents=1;labelBackgroundColor=none;" parent="-d8aVRQF-1La3N2QzhJ9-75" vertex="1">
                    <mxGeometry x="156" width="77" height="40" as="geometry">
                        <mxRectangle width="77" height="40" as="alternateBounds"/>
                    </mxGeometry>
                </mxCell>
                <mxCell id="-d8aVRQF-1La3N2QzhJ9-79" value="Sistemi Operativi 2" style="shape=partialRectangle;html=1;whiteSpace=wrap;connectable=0;overflow=hidden;fillColor=none;top=0;left=0;bottom=0;right=0;pointerEvents=1;labelBackgroundColor=none;" parent="-d8aVRQF-1La3N2QzhJ9-75" vertex="1">
                    <mxGeometry x="233" width="78" height="40" as="geometry">
                        <mxRectangle width="78" height="40" as="alternateBounds"/>
                    </mxGeometry>
                </mxCell>
                <mxCell id="-d8aVRQF-1La3N2QzhJ9-80" value="Analisi Matematica 1" style="shape=partialRectangle;html=1;whiteSpace=wrap;connectable=0;overflow=hidden;fillColor=none;top=0;left=0;bottom=0;right=0;pointerEvents=1;labelBackgroundColor=none;" parent="-d8aVRQF-1La3N2QzhJ9-75" vertex="1">
                    <mxGeometry x="311" width="78" height="40" as="geometry">
                        <mxRectangle width="78" height="40" as="alternateBounds"/>
                    </mxGeometry>
                </mxCell>
                <mxCell id="-d8aVRQF-1La3N2QzhJ9-83" value="" style="endArrow=none;html=1;rounded=0;exitX=0.472;exitY=-0.009;exitDx=0;exitDy=0;exitPerimeter=0;" parent="1" source="-d8aVRQF-1La3N2QzhJ9-33" edge="1">
                    <mxGeometry x="0.8" y="-21" width="50" height="50" relative="1" as="geometry">
                        <mxPoint x="389.5" y="210" as="sourcePoint"/>
                        <mxPoint x="406" y="150" as="targetPoint"/>
                        <mxPoint as="offset"/>
                    </mxGeometry>
                </mxCell>
                <mxCell id="-d8aVRQF-1La3N2QzhJ9-84" value="" style="endArrow=none;html=1;rounded=0;exitX=0.519;exitY=0;exitDx=0;exitDy=0;exitPerimeter=0;" parent="1" source="-d8aVRQF-1La3N2QzhJ9-68" edge="1">
                    <mxGeometry width="50" height="50" relative="1" as="geometry">
                        <mxPoint x="370" y="390" as="sourcePoint"/>
                        <mxPoint x="420" y="340" as="targetPoint"/>
                    </mxGeometry>
                </mxCell>
                <mxCell id="-d8aVRQF-1La3N2QzhJ9-85" value="" style="endArrow=none;html=1;rounded=0;entryX=0;entryY=0.133;entryDx=0;entryDy=0;entryPerimeter=0;exitX=1;exitY=0.182;exitDx=0;exitDy=0;exitPerimeter=0;" parent="1" source="-d8aVRQF-1La3N2QzhJ9-68" target="-d8aVRQF-1La3N2QzhJ9-46" edge="1">
                    <mxGeometry x="1" y="-201" width="50" height="50" relative="1" as="geometry">
                        <mxPoint x="609" y="510" as="sourcePoint"/>
                        <mxPoint x="659" y="460" as="targetPoint"/>
                        <mxPoint x="38" y="-52" as="offset"/>
                    </mxGeometry>
                </mxCell>
                <mxCell id="-d8aVRQF-1La3N2QzhJ9-86" value="Studenti" style="shape=table;startSize=30;container=1;collapsible=0;childLayout=tableLayout;labelBackgroundColor=none;" parent="1" vertex="1">
                    <mxGeometry x="-400" y="250" width="490" height="150" as="geometry"/>
                </mxCell>
                <mxCell id="-d8aVRQF-1La3N2QzhJ9-87" value="" style="shape=tableRow;horizontal=0;startSize=0;swimlaneHead=0;swimlaneBody=0;top=0;left=0;bottom=0;right=0;collapsible=0;dropTarget=0;fillColor=none;points=[[0,0.5],[1,0.5]];portConstraint=eastwest;labelBackgroundColor=none;" parent="-d8aVRQF-1La3N2QzhJ9-86" vertex="1">
                    <mxGeometry y="30" width="490" height="40" as="geometry"/>
                </mxCell>
                <mxCell id="-d8aVRQF-1La3N2QzhJ9-88" value="ID" style="shape=partialRectangle;html=1;whiteSpace=wrap;connectable=0;overflow=hidden;fillColor=none;top=0;left=0;bottom=0;right=0;pointerEvents=1;labelBackgroundColor=none;" parent="-d8aVRQF-1La3N2QzhJ9-87" vertex="1">
                    <mxGeometry width="82" height="40" as="geometry">
                        <mxRectangle width="82" height="40" as="alternateBounds"/>
                    </mxGeometry>
                </mxCell>
                <mxCell id="-d8aVRQF-1La3N2QzhJ9-89" value="1" style="shape=partialRectangle;html=1;whiteSpace=wrap;connectable=0;overflow=hidden;fillColor=none;top=0;left=0;bottom=0;right=0;pointerEvents=1;labelBackgroundColor=none;" parent="-d8aVRQF-1La3N2QzhJ9-87" vertex="1">
                    <mxGeometry x="82" width="81" height="40" as="geometry">
                        <mxRectangle width="81" height="40" as="alternateBounds"/>
                    </mxGeometry>
                </mxCell>
                <mxCell id="-d8aVRQF-1La3N2QzhJ9-90" value="2" style="shape=partialRectangle;html=1;whiteSpace=wrap;connectable=0;overflow=hidden;fillColor=none;top=0;left=0;bottom=0;right=0;pointerEvents=1;labelBackgroundColor=none;" parent="-d8aVRQF-1La3N2QzhJ9-87" vertex="1">
                    <mxGeometry x="163" width="82" height="40" as="geometry">
                        <mxRectangle width="82" height="40" as="alternateBounds"/>
                    </mxGeometry>
                </mxCell>
                <mxCell id="-d8aVRQF-1La3N2QzhJ9-91" value="3" style="shape=partialRectangle;html=1;whiteSpace=wrap;connectable=0;overflow=hidden;fillColor=none;top=0;left=0;bottom=0;right=0;pointerEvents=1;labelBackgroundColor=none;" parent="-d8aVRQF-1La3N2QzhJ9-87" vertex="1">
                    <mxGeometry x="245" width="82" height="40" as="geometry">
                        <mxRectangle width="82" height="40" as="alternateBounds"/>
                    </mxGeometry>
                </mxCell>
                <mxCell id="-d8aVRQF-1La3N2QzhJ9-92" value="4" style="shape=partialRectangle;html=1;whiteSpace=wrap;connectable=0;overflow=hidden;fillColor=none;top=0;left=0;bottom=0;right=0;pointerEvents=1;labelBackgroundColor=none;" parent="-d8aVRQF-1La3N2QzhJ9-87" vertex="1">
                    <mxGeometry x="327" width="81" height="40" as="geometry">
                        <mxRectangle width="81" height="40" as="alternateBounds"/>
                    </mxGeometry>
                </mxCell>
                <mxCell id="-d8aVRQF-1La3N2QzhJ9-93" value="5" style="shape=partialRectangle;html=1;whiteSpace=wrap;connectable=0;overflow=hidden;fillColor=none;top=0;left=0;bottom=0;right=0;pointerEvents=1;labelBackgroundColor=none;" parent="-d8aVRQF-1La3N2QzhJ9-87" vertex="1">
                    <mxGeometry x="408" width="82" height="40" as="geometry">
                        <mxRectangle width="82" height="40" as="alternateBounds"/>
                    </mxGeometry>
                </mxCell>
                <mxCell id="-d8aVRQF-1La3N2QzhJ9-94" value="" style="shape=tableRow;horizontal=0;startSize=0;swimlaneHead=0;swimlaneBody=0;top=0;left=0;bottom=0;right=0;collapsible=0;dropTarget=0;fillColor=none;points=[[0,0.5],[1,0.5]];portConstraint=eastwest;labelBackgroundColor=none;" parent="-d8aVRQF-1La3N2QzhJ9-86" vertex="1">
                    <mxGeometry y="70" width="490" height="40" as="geometry"/>
                </mxCell>
                <mxCell id="-d8aVRQF-1La3N2QzhJ9-95" value="NOME" style="shape=partialRectangle;html=1;whiteSpace=wrap;connectable=0;overflow=hidden;fillColor=none;top=0;left=0;bottom=0;right=0;pointerEvents=1;labelBackgroundColor=none;" parent="-d8aVRQF-1La3N2QzhJ9-94" vertex="1">
                    <mxGeometry width="82" height="40" as="geometry">
                        <mxRectangle width="82" height="40" as="alternateBounds"/>
                    </mxGeometry>
                </mxCell>
                <mxCell id="-d8aVRQF-1La3N2QzhJ9-96" value="Marco" style="shape=partialRectangle;html=1;whiteSpace=wrap;connectable=0;overflow=hidden;fillColor=none;top=0;left=0;bottom=0;right=0;pointerEvents=1;labelBackgroundColor=none;" parent="-d8aVRQF-1La3N2QzhJ9-94" vertex="1">
                    <mxGeometry x="82" width="81" height="40" as="geometry">
                        <mxRectangle width="81" height="40" as="alternateBounds"/>
                    </mxGeometry>
                </mxCell>
                <mxCell id="-d8aVRQF-1La3N2QzhJ9-97" value="Piero" style="shape=partialRectangle;html=1;whiteSpace=wrap;connectable=0;overflow=hidden;fillColor=none;top=0;left=0;bottom=0;right=0;pointerEvents=1;labelBackgroundColor=none;" parent="-d8aVRQF-1La3N2QzhJ9-94" vertex="1">
                    <mxGeometry x="163" width="82" height="40" as="geometry">
                        <mxRectangle width="82" height="40" as="alternateBounds"/>
                    </mxGeometry>
                </mxCell>
                <mxCell id="-d8aVRQF-1La3N2QzhJ9-98" value="Giuseppe" style="shape=partialRectangle;html=1;whiteSpace=wrap;connectable=0;overflow=hidden;fillColor=none;top=0;left=0;bottom=0;right=0;pointerEvents=1;labelBackgroundColor=none;" parent="-d8aVRQF-1La3N2QzhJ9-94" vertex="1">
                    <mxGeometry x="245" width="82" height="40" as="geometry">
                        <mxRectangle width="82" height="40" as="alternateBounds"/>
                    </mxGeometry>
                </mxCell>
                <mxCell id="-d8aVRQF-1La3N2QzhJ9-99" value="Antonio" style="shape=partialRectangle;html=1;whiteSpace=wrap;connectable=0;overflow=hidden;fillColor=none;top=0;left=0;bottom=0;right=0;pointerEvents=1;labelBackgroundColor=none;" parent="-d8aVRQF-1La3N2QzhJ9-94" vertex="1">
                    <mxGeometry x="327" width="81" height="40" as="geometry">
                        <mxRectangle width="81" height="40" as="alternateBounds"/>
                    </mxGeometry>
                </mxCell>
                <mxCell id="-d8aVRQF-1La3N2QzhJ9-100" value="Giovanni" style="shape=partialRectangle;html=1;whiteSpace=wrap;connectable=0;overflow=hidden;fillColor=none;top=0;left=0;bottom=0;right=0;pointerEvents=1;labelBackgroundColor=none;" parent="-d8aVRQF-1La3N2QzhJ9-94" vertex="1">
                    <mxGeometry x="408" width="82" height="40" as="geometry">
                        <mxRectangle width="82" height="40" as="alternateBounds"/>
                    </mxGeometry>
                </mxCell>
                <mxCell id="-d8aVRQF-1La3N2QzhJ9-101" value="" style="shape=tableRow;horizontal=0;startSize=0;swimlaneHead=0;swimlaneBody=0;top=0;left=0;bottom=0;right=0;collapsible=0;dropTarget=0;fillColor=none;points=[[0,0.5],[1,0.5]];portConstraint=eastwest;labelBackgroundColor=none;" parent="-d8aVRQF-1La3N2QzhJ9-86" vertex="1">
                    <mxGeometry y="110" width="490" height="40" as="geometry"/>
                </mxCell>
                <mxCell id="-d8aVRQF-1La3N2QzhJ9-102" value="COGNOME" style="shape=partialRectangle;html=1;whiteSpace=wrap;connectable=0;overflow=hidden;fillColor=none;top=0;left=0;bottom=0;right=0;pointerEvents=1;labelBackgroundColor=none;" parent="-d8aVRQF-1La3N2QzhJ9-101" vertex="1">
                    <mxGeometry width="82" height="40" as="geometry">
                        <mxRectangle width="82" height="40" as="alternateBounds"/>
                    </mxGeometry>
                </mxCell>
                <mxCell id="-d8aVRQF-1La3N2QzhJ9-103" value="Rossi" style="shape=partialRectangle;html=1;whiteSpace=wrap;connectable=0;overflow=hidden;fillColor=none;top=0;left=0;bottom=0;right=0;pointerEvents=1;labelBackgroundColor=none;" parent="-d8aVRQF-1La3N2QzhJ9-101" vertex="1">
                    <mxGeometry x="82" width="81" height="40" as="geometry">
                        <mxRectangle width="81" height="40" as="alternateBounds"/>
                    </mxGeometry>
                </mxCell>
                <mxCell id="-d8aVRQF-1La3N2QzhJ9-104" value="Verdi" style="shape=partialRectangle;html=1;whiteSpace=wrap;connectable=0;overflow=hidden;fillColor=none;top=0;left=0;bottom=0;right=0;pointerEvents=1;labelBackgroundColor=none;" parent="-d8aVRQF-1La3N2QzhJ9-101" vertex="1">
                    <mxGeometry x="163" width="82" height="40" as="geometry">
                        <mxRectangle width="82" height="40" as="alternateBounds"/>
                    </mxGeometry>
                </mxCell>
                <mxCell id="-d8aVRQF-1La3N2QzhJ9-105" value="Gialli" style="shape=partialRectangle;html=1;whiteSpace=wrap;connectable=0;overflow=hidden;fillColor=none;top=0;left=0;bottom=0;right=0;pointerEvents=1;labelBackgroundColor=none;" parent="-d8aVRQF-1La3N2QzhJ9-101" vertex="1">
                    <mxGeometry x="245" width="82" height="40" as="geometry">
                        <mxRectangle width="82" height="40" as="alternateBounds"/>
                    </mxGeometry>
                </mxCell>
                <mxCell id="-d8aVRQF-1La3N2QzhJ9-106" value="Bianchi" style="shape=partialRectangle;html=1;whiteSpace=wrap;connectable=0;overflow=hidden;fillColor=none;top=0;left=0;bottom=0;right=0;pointerEvents=1;labelBackgroundColor=none;" parent="-d8aVRQF-1La3N2QzhJ9-101" vertex="1">
                    <mxGeometry x="327" width="81" height="40" as="geometry">
                        <mxRectangle width="81" height="40" as="alternateBounds"/>
                    </mxGeometry>
                </mxCell>
                <mxCell id="-d8aVRQF-1La3N2QzhJ9-107" value="Neri" style="shape=partialRectangle;html=1;whiteSpace=wrap;connectable=0;overflow=hidden;fillColor=none;top=0;left=0;bottom=0;right=0;pointerEvents=1;labelBackgroundColor=none;" parent="-d8aVRQF-1La3N2QzhJ9-101" vertex="1">
                    <mxGeometry x="408" width="82" height="40" as="geometry">
                        <mxRectangle width="82" height="40" as="alternateBounds"/>
                    </mxGeometry>
                </mxCell>
                <mxCell id="-d8aVRQF-1La3N2QzhJ9-108" value="" style="endArrow=none;html=1;rounded=0;exitX=1.004;exitY=0.147;exitDx=0;exitDy=0;exitPerimeter=0;entryX=0.005;entryY=0.2;entryDx=0;entryDy=0;entryPerimeter=0;" parent="1" source="-d8aVRQF-1La3N2QzhJ9-86" target="-d8aVRQF-1La3N2QzhJ9-33" edge="1">
                    <mxGeometry width="50" height="50" relative="1" as="geometry">
                        <mxPoint x="169" y="330" as="sourcePoint"/>
                        <mxPoint x="219" y="280" as="targetPoint"/>
                    </mxGeometry>
                </mxCell>
                <mxCell id="-d8aVRQF-1La3N2QzhJ9-109" value="Appelli" style="shape=table;startSize=30;container=1;collapsible=0;childLayout=tableLayout;labelBackgroundColor=none;" parent="1" vertex="1">
                    <mxGeometry x="214.5" y="650" width="394" height="310" as="geometry"/>
                </mxCell>
                <mxCell id="-d8aVRQF-1La3N2QzhJ9-110" value="" style="shape=tableRow;horizontal=0;startSize=0;swimlaneHead=0;swimlaneBody=0;top=0;left=0;bottom=0;right=0;collapsible=0;dropTarget=0;fillColor=none;points=[[0,0.5],[1,0.5]];portConstraint=eastwest;labelBackgroundColor=none;" parent="-d8aVRQF-1La3N2QzhJ9-109" vertex="1">
                    <mxGeometry y="30" width="394" height="40" as="geometry"/>
                </mxCell>
                <mxCell id="-d8aVRQF-1La3N2QzhJ9-111" value="ID" style="shape=partialRectangle;html=1;whiteSpace=wrap;connectable=0;overflow=hidden;fillColor=none;top=0;left=0;bottom=0;right=0;pointerEvents=1;labelBackgroundColor=none;" parent="-d8aVRQF-1La3N2QzhJ9-110" vertex="1">
                    <mxGeometry width="139" height="40" as="geometry">
                        <mxRectangle width="139" height="40" as="alternateBounds"/>
                    </mxGeometry>
                </mxCell>
                <mxCell id="-d8aVRQF-1La3N2QzhJ9-112" value="DIVERSI_CORSI_ID" style="shape=partialRectangle;html=1;whiteSpace=wrap;connectable=0;overflow=hidden;fillColor=none;top=0;left=0;bottom=0;right=0;pointerEvents=1;labelBackgroundColor=none;" parent="-d8aVRQF-1La3N2QzhJ9-110" vertex="1">
                    <mxGeometry x="139" width="128" height="40" as="geometry">
                        <mxRectangle width="128" height="40" as="alternateBounds"/>
                    </mxGeometry>
                </mxCell>
                <mxCell id="-d8aVRQF-1La3N2QzhJ9-113" value="DATA" style="shape=partialRectangle;html=1;whiteSpace=wrap;connectable=0;overflow=hidden;fillColor=none;top=0;left=0;bottom=0;right=0;pointerEvents=1;labelBackgroundColor=none;" parent="-d8aVRQF-1La3N2QzhJ9-110" vertex="1">
                    <mxGeometry x="267" width="127" height="40" as="geometry">
                        <mxRectangle width="127" height="40" as="alternateBounds"/>
                    </mxGeometry>
                </mxCell>
                <mxCell id="-d8aVRQF-1La3N2QzhJ9-114" value="" style="shape=tableRow;horizontal=0;startSize=0;swimlaneHead=0;swimlaneBody=0;top=0;left=0;bottom=0;right=0;collapsible=0;dropTarget=0;fillColor=none;points=[[0,0.5],[1,0.5]];portConstraint=eastwest;labelBackgroundColor=none;" parent="-d8aVRQF-1La3N2QzhJ9-109" vertex="1">
                    <mxGeometry y="70" width="394" height="40" as="geometry"/>
                </mxCell>
                <mxCell id="-d8aVRQF-1La3N2QzhJ9-115" value="1" style="shape=partialRectangle;html=1;whiteSpace=wrap;connectable=0;overflow=hidden;fillColor=none;top=0;left=0;bottom=0;right=0;pointerEvents=1;labelBackgroundColor=none;" parent="-d8aVRQF-1La3N2QzhJ9-114" vertex="1">
                    <mxGeometry width="139" height="40" as="geometry">
                        <mxRectangle width="139" height="40" as="alternateBounds"/>
                    </mxGeometry>
                </mxCell>
                <mxCell id="-d8aVRQF-1La3N2QzhJ9-116" value="1" style="shape=partialRectangle;html=1;whiteSpace=wrap;connectable=0;overflow=hidden;fillColor=none;top=0;left=0;bottom=0;right=0;pointerEvents=1;labelBackgroundColor=none;" parent="-d8aVRQF-1La3N2QzhJ9-114" vertex="1">
                    <mxGeometry x="139" width="128" height="40" as="geometry">
                        <mxRectangle width="128" height="40" as="alternateBounds"/>
                    </mxGeometry>
                </mxCell>
                <mxCell id="-d8aVRQF-1La3N2QzhJ9-117" value="20/01/2023" style="shape=partialRectangle;html=1;whiteSpace=wrap;connectable=0;overflow=hidden;fillColor=none;top=0;left=0;bottom=0;right=0;pointerEvents=1;labelBackgroundColor=none;" parent="-d8aVRQF-1La3N2QzhJ9-114" vertex="1">
                    <mxGeometry x="267" width="127" height="40" as="geometry">
                        <mxRectangle width="127" height="40" as="alternateBounds"/>
                    </mxGeometry>
                </mxCell>
                <mxCell id="-d8aVRQF-1La3N2QzhJ9-118" value="" style="shape=tableRow;horizontal=0;startSize=0;swimlaneHead=0;swimlaneBody=0;top=0;left=0;bottom=0;right=0;collapsible=0;dropTarget=0;fillColor=none;points=[[0,0.5],[1,0.5]];portConstraint=eastwest;labelBackgroundColor=none;" parent="-d8aVRQF-1La3N2QzhJ9-109" vertex="1">
                    <mxGeometry y="110" width="394" height="40" as="geometry"/>
                </mxCell>
                <mxCell id="-d8aVRQF-1La3N2QzhJ9-119" value="2" style="shape=partialRectangle;html=1;whiteSpace=wrap;connectable=0;overflow=hidden;fillColor=none;top=0;left=0;bottom=0;right=0;pointerEvents=1;labelBackgroundColor=none;" parent="-d8aVRQF-1La3N2QzhJ9-118" vertex="1">
                    <mxGeometry width="139" height="40" as="geometry">
                        <mxRectangle width="139" height="40" as="alternateBounds"/>
                    </mxGeometry>
                </mxCell>
                <mxCell id="-d8aVRQF-1La3N2QzhJ9-120" value="4" style="shape=partialRectangle;html=1;whiteSpace=wrap;connectable=0;overflow=hidden;fillColor=none;top=0;left=0;bottom=0;right=0;pointerEvents=1;labelBackgroundColor=none;" parent="-d8aVRQF-1La3N2QzhJ9-118" vertex="1">
                    <mxGeometry x="139" width="128" height="40" as="geometry">
                        <mxRectangle width="128" height="40" as="alternateBounds"/>
                    </mxGeometry>
                </mxCell>
                <mxCell id="-d8aVRQF-1La3N2QzhJ9-121" value="29/01/2023" style="shape=partialRectangle;html=1;whiteSpace=wrap;connectable=0;overflow=hidden;fillColor=none;top=0;left=0;bottom=0;right=0;pointerEvents=1;labelBackgroundColor=none;" parent="-d8aVRQF-1La3N2QzhJ9-118" vertex="1">
                    <mxGeometry x="267" width="127" height="40" as="geometry">
                        <mxRectangle width="127" height="40" as="alternateBounds"/>
                    </mxGeometry>
                </mxCell>
                <mxCell id="-d8aVRQF-1La3N2QzhJ9-122" value="" style="shape=tableRow;horizontal=0;startSize=0;swimlaneHead=0;swimlaneBody=0;top=0;left=0;bottom=0;right=0;collapsible=0;dropTarget=0;fillColor=none;points=[[0,0.5],[1,0.5]];portConstraint=eastwest;labelBackgroundColor=none;" parent="-d8aVRQF-1La3N2QzhJ9-109" vertex="1">
                    <mxGeometry y="150" width="394" height="40" as="geometry"/>
                </mxCell>
                <mxCell id="-d8aVRQF-1La3N2QzhJ9-123" value="3" style="shape=partialRectangle;html=1;whiteSpace=wrap;connectable=0;overflow=hidden;fillColor=none;top=0;left=0;bottom=0;right=0;pointerEvents=1;labelBackgroundColor=none;" parent="-d8aVRQF-1La3N2QzhJ9-122" vertex="1">
                    <mxGeometry width="139" height="40" as="geometry">
                        <mxRectangle width="139" height="40" as="alternateBounds"/>
                    </mxGeometry>
                </mxCell>
                <mxCell id="-d8aVRQF-1La3N2QzhJ9-124" value="3" style="shape=partialRectangle;html=1;whiteSpace=wrap;connectable=0;overflow=hidden;fillColor=none;top=0;left=0;bottom=0;right=0;pointerEvents=1;labelBackgroundColor=none;" parent="-d8aVRQF-1La3N2QzhJ9-122" vertex="1">
                    <mxGeometry x="139" width="128" height="40" as="geometry">
                        <mxRectangle width="128" height="40" as="alternateBounds"/>
                    </mxGeometry>
                </mxCell>
                <mxCell id="-d8aVRQF-1La3N2QzhJ9-125" value="05/02/2023" style="shape=partialRectangle;html=1;whiteSpace=wrap;connectable=0;overflow=hidden;fillColor=none;top=0;left=0;bottom=0;right=0;pointerEvents=1;labelBackgroundColor=none;" parent="-d8aVRQF-1La3N2QzhJ9-122" vertex="1">
                    <mxGeometry x="267" width="127" height="40" as="geometry">
                        <mxRectangle width="127" height="40" as="alternateBounds"/>
                    </mxGeometry>
                </mxCell>
                <mxCell id="-d8aVRQF-1La3N2QzhJ9-126" value="" style="shape=tableRow;horizontal=0;startSize=0;swimlaneHead=0;swimlaneBody=0;top=0;left=0;bottom=0;right=0;collapsible=0;dropTarget=0;fillColor=none;points=[[0,0.5],[1,0.5]];portConstraint=eastwest;labelBackgroundColor=none;" parent="-d8aVRQF-1La3N2QzhJ9-109" vertex="1">
                    <mxGeometry y="190" width="394" height="40" as="geometry"/>
                </mxCell>
                <mxCell id="-d8aVRQF-1La3N2QzhJ9-127" value="4" style="shape=partialRectangle;html=1;whiteSpace=wrap;connectable=0;overflow=hidden;fillColor=none;top=0;left=0;bottom=0;right=0;pointerEvents=1;labelBackgroundColor=none;" parent="-d8aVRQF-1La3N2QzhJ9-126" vertex="1">
                    <mxGeometry width="139" height="40" as="geometry">
                        <mxRectangle width="139" height="40" as="alternateBounds"/>
                    </mxGeometry>
                </mxCell>
                <mxCell id="-d8aVRQF-1La3N2QzhJ9-128" value="2" style="shape=partialRectangle;html=1;whiteSpace=wrap;connectable=0;overflow=hidden;fillColor=none;top=0;left=0;bottom=0;right=0;pointerEvents=1;labelBackgroundColor=none;" parent="-d8aVRQF-1La3N2QzhJ9-126" vertex="1">
                    <mxGeometry x="139" width="128" height="40" as="geometry">
                        <mxRectangle width="128" height="40" as="alternateBounds"/>
                    </mxGeometry>
                </mxCell>
                <mxCell id="-d8aVRQF-1La3N2QzhJ9-129" value="&lt;span style=&quot;font-family: Helvetica; font-size: 12px; font-style: normal; font-variant-ligatures: normal; font-variant-caps: normal; font-weight: 400; letter-spacing: normal; orphans: 2; text-align: center; text-indent: 0px; text-transform: none; widows: 2; word-spacing: 0px; -webkit-text-stroke-width: 0px; text-decoration-thickness: initial; text-decoration-style: initial; text-decoration-color: initial; float: none; display: inline !important;&quot;&gt;12/02/2023&lt;/span&gt;" style="shape=partialRectangle;html=1;whiteSpace=wrap;connectable=0;overflow=hidden;fillColor=none;top=0;left=0;bottom=0;right=0;pointerEvents=1;labelBackgroundColor=none;fontColor=#FFFFFF;" parent="-d8aVRQF-1La3N2QzhJ9-126" vertex="1">
                    <mxGeometry x="267" width="127" height="40" as="geometry">
                        <mxRectangle width="127" height="40" as="alternateBounds"/>
                    </mxGeometry>
                </mxCell>
                <mxCell id="-d8aVRQF-1La3N2QzhJ9-130" value="" style="shape=tableRow;horizontal=0;startSize=0;swimlaneHead=0;swimlaneBody=0;top=0;left=0;bottom=0;right=0;collapsible=0;dropTarget=0;fillColor=none;points=[[0,0.5],[1,0.5]];portConstraint=eastwest;labelBackgroundColor=none;" parent="-d8aVRQF-1La3N2QzhJ9-109" vertex="1">
                    <mxGeometry y="230" width="394" height="40" as="geometry"/>
                </mxCell>
                <mxCell id="-d8aVRQF-1La3N2QzhJ9-131" value="5" style="shape=partialRectangle;html=1;whiteSpace=wrap;connectable=0;overflow=hidden;fillColor=none;top=0;left=0;bottom=0;right=0;pointerEvents=1;labelBackgroundColor=none;" parent="-d8aVRQF-1La3N2QzhJ9-130" vertex="1">
                    <mxGeometry width="139" height="40" as="geometry">
                        <mxRectangle width="139" height="40" as="alternateBounds"/>
                    </mxGeometry>
                </mxCell>
                <mxCell id="-d8aVRQF-1La3N2QzhJ9-132" value="3" style="shape=partialRectangle;html=1;whiteSpace=wrap;connectable=0;overflow=hidden;fillColor=none;top=0;left=0;bottom=0;right=0;pointerEvents=1;labelBackgroundColor=none;" parent="-d8aVRQF-1La3N2QzhJ9-130" vertex="1">
                    <mxGeometry x="139" width="128" height="40" as="geometry">
                        <mxRectangle width="128" height="40" as="alternateBounds"/>
                    </mxGeometry>
                </mxCell>
                <mxCell id="-d8aVRQF-1La3N2QzhJ9-133" value="30/02/2023" style="shape=partialRectangle;html=1;whiteSpace=wrap;connectable=0;overflow=hidden;fillColor=none;top=0;left=0;bottom=0;right=0;pointerEvents=1;labelBackgroundColor=none;" parent="-d8aVRQF-1La3N2QzhJ9-130" vertex="1">
                    <mxGeometry x="267" width="127" height="40" as="geometry">
                        <mxRectangle width="127" height="40" as="alternateBounds"/>
                    </mxGeometry>
                </mxCell>
                <mxCell id="-d8aVRQF-1La3N2QzhJ9-134" value="" style="shape=tableRow;horizontal=0;startSize=0;swimlaneHead=0;swimlaneBody=0;top=0;left=0;bottom=0;right=0;collapsible=0;dropTarget=0;fillColor=none;points=[[0,0.5],[1,0.5]];portConstraint=eastwest;labelBackgroundColor=none;" parent="-d8aVRQF-1La3N2QzhJ9-109" vertex="1">
                    <mxGeometry y="270" width="394" height="40" as="geometry"/>
                </mxCell>
                <mxCell id="-d8aVRQF-1La3N2QzhJ9-135" value="6" style="shape=partialRectangle;html=1;whiteSpace=wrap;connectable=0;overflow=hidden;fillColor=none;top=0;left=0;bottom=0;right=0;pointerEvents=1;labelBackgroundColor=none;" parent="-d8aVRQF-1La3N2QzhJ9-134" vertex="1">
                    <mxGeometry width="139" height="40" as="geometry">
                        <mxRectangle width="139" height="40" as="alternateBounds"/>
                    </mxGeometry>
                </mxCell>
                <mxCell id="-d8aVRQF-1La3N2QzhJ9-136" value="1" style="shape=partialRectangle;html=1;whiteSpace=wrap;connectable=0;overflow=hidden;fillColor=none;top=0;left=0;bottom=0;right=0;pointerEvents=1;labelBackgroundColor=none;" parent="-d8aVRQF-1La3N2QzhJ9-134" vertex="1">
                    <mxGeometry x="139" width="128" height="40" as="geometry">
                        <mxRectangle width="128" height="40" as="alternateBounds"/>
                    </mxGeometry>
                </mxCell>
                <mxCell id="-d8aVRQF-1La3N2QzhJ9-137" value="&lt;span style=&quot;font-family: &amp;#34;helvetica&amp;#34; ; font-size: 12px ; font-style: normal ; font-weight: 400 ; letter-spacing: normal ; text-align: center ; text-indent: 0px ; text-transform: none ; word-spacing: 0px ; float: none ; display: inline&quot;&gt;&lt;font color=&quot;#ffffff&quot;&gt;03/03/2023&lt;/font&gt;&lt;br&gt;&lt;/span&gt;" style="shape=partialRectangle;html=1;whiteSpace=wrap;connectable=0;overflow=hidden;fillColor=none;top=0;left=0;bottom=0;right=0;pointerEvents=1;labelBackgroundColor=none;" parent="-d8aVRQF-1La3N2QzhJ9-134" vertex="1">
                    <mxGeometry x="267" width="127" height="40" as="geometry">
                        <mxRectangle width="127" height="40" as="alternateBounds"/>
                    </mxGeometry>
                </mxCell>
                <mxCell id="-d8aVRQF-1La3N2QzhJ9-138" value="" style="endArrow=none;html=1;rounded=0;exitX=0.519;exitY=-0.013;exitDx=0;exitDy=0;exitPerimeter=0;" parent="1" source="-d8aVRQF-1La3N2QzhJ9-109" edge="1">
                    <mxGeometry width="50" height="50" relative="1" as="geometry">
                        <mxPoint x="370" y="600" as="sourcePoint"/>
                        <mxPoint x="420" y="550" as="targetPoint"/>
                    </mxGeometry>
                </mxCell>
                <mxCell id="-d8aVRQF-1La3N2QzhJ9-161" value="" style="endArrow=none;html=1;rounded=0;entryX=0.504;entryY=1.125;entryDx=0;entryDy=0;entryPerimeter=0;exitX=0.5;exitY=0;exitDx=0;exitDy=0;" parent="1" target="-d8aVRQF-1La3N2QzhJ9-101" edge="1">
                    <mxGeometry width="50" height="50" relative="1" as="geometry">
                        <mxPoint x="-140" y="530" as="sourcePoint"/>
                        <mxPoint x="-90" y="440" as="targetPoint"/>
                    </mxGeometry>
                </mxCell>
                <mxCell id="-d8aVRQF-1La3N2QzhJ9-162" value="" style="endArrow=none;html=1;rounded=0;exitX=1.015;exitY=0.061;exitDx=0;exitDy=0;exitPerimeter=0;entryX=0.004;entryY=0.068;entryDx=0;entryDy=0;entryPerimeter=0;" parent="1" target="-d8aVRQF-1La3N2QzhJ9-109" edge="1">
                    <mxGeometry y="-21" width="50" height="50" relative="1" as="geometry">
                        <mxPoint x="-37" y="548.9100000000001" as="sourcePoint"/>
                        <mxPoint x="100" y="700" as="targetPoint"/>
                        <mxPoint as="offset"/>
                    </mxGeometry>
                </mxCell>
                <mxCell id="-d8aVRQF-1La3N2QzhJ9-192" value="Appelli Studente" style="shape=table;startSize=30;container=1;collapsible=0;childLayout=tableLayout;labelBackgroundColor=none;" parent="1" vertex="1">
                    <mxGeometry x="-320" y="530" width="280" height="310" as="geometry"/>
                </mxCell>
                <mxCell id="-d8aVRQF-1La3N2QzhJ9-193" value="" style="shape=tableRow;horizontal=0;startSize=0;swimlaneHead=0;swimlaneBody=0;top=0;left=0;bottom=0;right=0;collapsible=0;dropTarget=0;fillColor=none;points=[[0,0.5],[1,0.5]];portConstraint=eastwest;labelBackgroundColor=none;" parent="-d8aVRQF-1La3N2QzhJ9-192" vertex="1">
                    <mxGeometry y="30" width="280" height="40" as="geometry"/>
                </mxCell>
                <mxCell id="-d8aVRQF-1La3N2QzhJ9-194" value="ID" style="shape=partialRectangle;html=1;whiteSpace=wrap;connectable=0;overflow=hidden;fillColor=none;top=0;left=0;bottom=0;right=0;pointerEvents=1;labelBackgroundColor=none;" parent="-d8aVRQF-1La3N2QzhJ9-193" vertex="1">
                    <mxGeometry width="93" height="40" as="geometry">
                        <mxRectangle width="93" height="40" as="alternateBounds"/>
                    </mxGeometry>
                </mxCell>
                <mxCell id="-d8aVRQF-1La3N2QzhJ9-195" value="STUDENTI_ID" style="shape=partialRectangle;html=1;whiteSpace=wrap;connectable=0;overflow=hidden;fillColor=none;top=0;left=0;bottom=0;right=0;pointerEvents=1;labelBackgroundColor=none;" parent="-d8aVRQF-1La3N2QzhJ9-193" vertex="1">
                    <mxGeometry x="93" width="94" height="40" as="geometry">
                        <mxRectangle width="94" height="40" as="alternateBounds"/>
                    </mxGeometry>
                </mxCell>
                <mxCell id="-d8aVRQF-1La3N2QzhJ9-196" value="APPELLI_ID" style="shape=partialRectangle;html=1;whiteSpace=wrap;connectable=0;overflow=hidden;fillColor=none;top=0;left=0;bottom=0;right=0;pointerEvents=1;labelBackgroundColor=none;" parent="-d8aVRQF-1La3N2QzhJ9-193" vertex="1">
                    <mxGeometry x="187" width="93" height="40" as="geometry">
                        <mxRectangle width="93" height="40" as="alternateBounds"/>
                    </mxGeometry>
                </mxCell>
                <mxCell id="-d8aVRQF-1La3N2QzhJ9-197" value="" style="shape=tableRow;horizontal=0;startSize=0;swimlaneHead=0;swimlaneBody=0;top=0;left=0;bottom=0;right=0;collapsible=0;dropTarget=0;fillColor=none;points=[[0,0.5],[1,0.5]];portConstraint=eastwest;labelBackgroundColor=none;" parent="-d8aVRQF-1La3N2QzhJ9-192" vertex="1">
                    <mxGeometry y="70" width="280" height="40" as="geometry"/>
                </mxCell>
                <mxCell id="-d8aVRQF-1La3N2QzhJ9-198" value="1" style="shape=partialRectangle;html=1;whiteSpace=wrap;connectable=0;overflow=hidden;fillColor=none;top=0;left=0;bottom=0;right=0;pointerEvents=1;labelBackgroundColor=none;" parent="-d8aVRQF-1La3N2QzhJ9-197" vertex="1">
                    <mxGeometry width="93" height="40" as="geometry">
                        <mxRectangle width="93" height="40" as="alternateBounds"/>
                    </mxGeometry>
                </mxCell>
                <mxCell id="-d8aVRQF-1La3N2QzhJ9-199" value="1" style="shape=partialRectangle;html=1;whiteSpace=wrap;connectable=0;overflow=hidden;fillColor=none;top=0;left=0;bottom=0;right=0;pointerEvents=1;labelBackgroundColor=none;" parent="-d8aVRQF-1La3N2QzhJ9-197" vertex="1">
                    <mxGeometry x="93" width="94" height="40" as="geometry">
                        <mxRectangle width="94" height="40" as="alternateBounds"/>
                    </mxGeometry>
                </mxCell>
                <mxCell id="-d8aVRQF-1La3N2QzhJ9-200" value="1" style="shape=partialRectangle;html=1;whiteSpace=wrap;connectable=0;overflow=hidden;fillColor=none;top=0;left=0;bottom=0;right=0;pointerEvents=1;labelBackgroundColor=none;" parent="-d8aVRQF-1La3N2QzhJ9-197" vertex="1">
                    <mxGeometry x="187" width="93" height="40" as="geometry">
                        <mxRectangle width="93" height="40" as="alternateBounds"/>
                    </mxGeometry>
                </mxCell>
                <mxCell id="-d8aVRQF-1La3N2QzhJ9-201" value="" style="shape=tableRow;horizontal=0;startSize=0;swimlaneHead=0;swimlaneBody=0;top=0;left=0;bottom=0;right=0;collapsible=0;dropTarget=0;fillColor=none;points=[[0,0.5],[1,0.5]];portConstraint=eastwest;labelBackgroundColor=none;" parent="-d8aVRQF-1La3N2QzhJ9-192" vertex="1">
                    <mxGeometry y="110" width="280" height="40" as="geometry"/>
                </mxCell>
                <mxCell id="-d8aVRQF-1La3N2QzhJ9-202" value="2" style="shape=partialRectangle;html=1;whiteSpace=wrap;connectable=0;overflow=hidden;fillColor=none;top=0;left=0;bottom=0;right=0;pointerEvents=1;labelBackgroundColor=none;" parent="-d8aVRQF-1La3N2QzhJ9-201" vertex="1">
                    <mxGeometry width="93" height="40" as="geometry">
                        <mxRectangle width="93" height="40" as="alternateBounds"/>
                    </mxGeometry>
                </mxCell>
                <mxCell id="-d8aVRQF-1La3N2QzhJ9-203" value="3" style="shape=partialRectangle;html=1;whiteSpace=wrap;connectable=0;overflow=hidden;fillColor=none;top=0;left=0;bottom=0;right=0;pointerEvents=1;labelBackgroundColor=none;" parent="-d8aVRQF-1La3N2QzhJ9-201" vertex="1">
                    <mxGeometry x="93" width="94" height="40" as="geometry">
                        <mxRectangle width="94" height="40" as="alternateBounds"/>
                    </mxGeometry>
                </mxCell>
                <mxCell id="-d8aVRQF-1La3N2QzhJ9-204" value="5" style="shape=partialRectangle;html=1;whiteSpace=wrap;connectable=0;overflow=hidden;fillColor=none;top=0;left=0;bottom=0;right=0;pointerEvents=1;labelBackgroundColor=none;" parent="-d8aVRQF-1La3N2QzhJ9-201" vertex="1">
                    <mxGeometry x="187" width="93" height="40" as="geometry">
                        <mxRectangle width="93" height="40" as="alternateBounds"/>
                    </mxGeometry>
                </mxCell>
                <mxCell id="-d8aVRQF-1La3N2QzhJ9-205" value="" style="shape=tableRow;horizontal=0;startSize=0;swimlaneHead=0;swimlaneBody=0;top=0;left=0;bottom=0;right=0;collapsible=0;dropTarget=0;fillColor=none;points=[[0,0.5],[1,0.5]];portConstraint=eastwest;labelBackgroundColor=none;" parent="-d8aVRQF-1La3N2QzhJ9-192" vertex="1">
                    <mxGeometry y="150" width="280" height="40" as="geometry"/>
                </mxCell>
                <mxCell id="-d8aVRQF-1La3N2QzhJ9-206" value="3" style="shape=partialRectangle;html=1;whiteSpace=wrap;connectable=0;overflow=hidden;fillColor=none;top=0;left=0;bottom=0;right=0;pointerEvents=1;labelBackgroundColor=none;" parent="-d8aVRQF-1La3N2QzhJ9-205" vertex="1">
                    <mxGeometry width="93" height="40" as="geometry">
                        <mxRectangle width="93" height="40" as="alternateBounds"/>
                    </mxGeometry>
                </mxCell>
                <mxCell id="-d8aVRQF-1La3N2QzhJ9-207" value="5" style="shape=partialRectangle;html=1;whiteSpace=wrap;connectable=0;overflow=hidden;fillColor=none;top=0;left=0;bottom=0;right=0;pointerEvents=1;labelBackgroundColor=none;" parent="-d8aVRQF-1La3N2QzhJ9-205" vertex="1">
                    <mxGeometry x="93" width="94" height="40" as="geometry">
                        <mxRectangle width="94" height="40" as="alternateBounds"/>
                    </mxGeometry>
                </mxCell>
                <mxCell id="-d8aVRQF-1La3N2QzhJ9-208" value="2" style="shape=partialRectangle;html=1;whiteSpace=wrap;connectable=0;overflow=hidden;fillColor=none;top=0;left=0;bottom=0;right=0;pointerEvents=1;labelBackgroundColor=none;" parent="-d8aVRQF-1La3N2QzhJ9-205" vertex="1">
                    <mxGeometry x="187" width="93" height="40" as="geometry">
                        <mxRectangle width="93" height="40" as="alternateBounds"/>
                    </mxGeometry>
                </mxCell>
                <mxCell id="-d8aVRQF-1La3N2QzhJ9-209" value="" style="shape=tableRow;horizontal=0;startSize=0;swimlaneHead=0;swimlaneBody=0;top=0;left=0;bottom=0;right=0;collapsible=0;dropTarget=0;fillColor=none;points=[[0,0.5],[1,0.5]];portConstraint=eastwest;labelBackgroundColor=none;" parent="-d8aVRQF-1La3N2QzhJ9-192" vertex="1">
                    <mxGeometry y="190" width="280" height="40" as="geometry"/>
                </mxCell>
                <mxCell id="-d8aVRQF-1La3N2QzhJ9-210" value="4" style="shape=partialRectangle;html=1;whiteSpace=wrap;connectable=0;overflow=hidden;fillColor=none;top=0;left=0;bottom=0;right=0;pointerEvents=1;labelBackgroundColor=none;" parent="-d8aVRQF-1La3N2QzhJ9-209" vertex="1">
                    <mxGeometry width="93" height="40" as="geometry">
                        <mxRectangle width="93" height="40" as="alternateBounds"/>
                    </mxGeometry>
                </mxCell>
                <mxCell id="-d8aVRQF-1La3N2QzhJ9-211" value="2" style="shape=partialRectangle;html=1;whiteSpace=wrap;connectable=0;overflow=hidden;fillColor=none;top=0;left=0;bottom=0;right=0;pointerEvents=1;labelBackgroundColor=none;" parent="-d8aVRQF-1La3N2QzhJ9-209" vertex="1">
                    <mxGeometry x="93" width="94" height="40" as="geometry">
                        <mxRectangle width="94" height="40" as="alternateBounds"/>
                    </mxGeometry>
                </mxCell>
                <mxCell id="-d8aVRQF-1La3N2QzhJ9-212" value="6" style="shape=partialRectangle;html=1;whiteSpace=wrap;connectable=0;overflow=hidden;fillColor=none;top=0;left=0;bottom=0;right=0;pointerEvents=1;labelBackgroundColor=none;" parent="-d8aVRQF-1La3N2QzhJ9-209" vertex="1">
                    <mxGeometry x="187" width="93" height="40" as="geometry">
                        <mxRectangle width="93" height="40" as="alternateBounds"/>
                    </mxGeometry>
                </mxCell>
                <mxCell id="-d8aVRQF-1La3N2QzhJ9-213" value="" style="shape=tableRow;horizontal=0;startSize=0;swimlaneHead=0;swimlaneBody=0;top=0;left=0;bottom=0;right=0;collapsible=0;dropTarget=0;fillColor=none;points=[[0,0.5],[1,0.5]];portConstraint=eastwest;labelBackgroundColor=none;" parent="-d8aVRQF-1La3N2QzhJ9-192" vertex="1">
                    <mxGeometry y="230" width="280" height="40" as="geometry"/>
                </mxCell>
                <mxCell id="-d8aVRQF-1La3N2QzhJ9-214" value="5" style="shape=partialRectangle;html=1;whiteSpace=wrap;connectable=0;overflow=hidden;fillColor=none;top=0;left=0;bottom=0;right=0;pointerEvents=1;labelBackgroundColor=none;" parent="-d8aVRQF-1La3N2QzhJ9-213" vertex="1">
                    <mxGeometry width="93" height="40" as="geometry">
                        <mxRectangle width="93" height="40" as="alternateBounds"/>
                    </mxGeometry>
                </mxCell>
                <mxCell id="-d8aVRQF-1La3N2QzhJ9-215" value="3" style="shape=partialRectangle;html=1;whiteSpace=wrap;connectable=0;overflow=hidden;fillColor=none;top=0;left=0;bottom=0;right=0;pointerEvents=1;labelBackgroundColor=none;" parent="-d8aVRQF-1La3N2QzhJ9-213" vertex="1">
                    <mxGeometry x="93" width="94" height="40" as="geometry">
                        <mxRectangle width="94" height="40" as="alternateBounds"/>
                    </mxGeometry>
                </mxCell>
                <mxCell id="-d8aVRQF-1La3N2QzhJ9-216" value="3" style="shape=partialRectangle;html=1;whiteSpace=wrap;connectable=0;overflow=hidden;fillColor=none;top=0;left=0;bottom=0;right=0;pointerEvents=1;labelBackgroundColor=none;" parent="-d8aVRQF-1La3N2QzhJ9-213" vertex="1">
                    <mxGeometry x="187" width="93" height="40" as="geometry">
                        <mxRectangle width="93" height="40" as="alternateBounds"/>
                    </mxGeometry>
                </mxCell>
                <mxCell id="-d8aVRQF-1La3N2QzhJ9-217" value="" style="shape=tableRow;horizontal=0;startSize=0;swimlaneHead=0;swimlaneBody=0;top=0;left=0;bottom=0;right=0;collapsible=0;dropTarget=0;fillColor=none;points=[[0,0.5],[1,0.5]];portConstraint=eastwest;labelBackgroundColor=none;" parent="-d8aVRQF-1La3N2QzhJ9-192" vertex="1">
                    <mxGeometry y="270" width="280" height="40" as="geometry"/>
                </mxCell>
                <mxCell id="-d8aVRQF-1La3N2QzhJ9-218" value="6" style="shape=partialRectangle;html=1;whiteSpace=wrap;connectable=0;overflow=hidden;fillColor=none;top=0;left=0;bottom=0;right=0;pointerEvents=1;labelBackgroundColor=none;" parent="-d8aVRQF-1La3N2QzhJ9-217" vertex="1">
                    <mxGeometry width="93" height="40" as="geometry">
                        <mxRectangle width="93" height="40" as="alternateBounds"/>
                    </mxGeometry>
                </mxCell>
                <mxCell id="-d8aVRQF-1La3N2QzhJ9-219" value="4" style="shape=partialRectangle;html=1;whiteSpace=wrap;connectable=0;overflow=hidden;fillColor=none;top=0;left=0;bottom=0;right=0;pointerEvents=1;labelBackgroundColor=none;" parent="-d8aVRQF-1La3N2QzhJ9-217" vertex="1">
                    <mxGeometry x="93" width="94" height="40" as="geometry">
                        <mxRectangle width="94" height="40" as="alternateBounds"/>
                    </mxGeometry>
                </mxCell>
                <mxCell id="-d8aVRQF-1La3N2QzhJ9-220" value="4" style="shape=partialRectangle;html=1;whiteSpace=wrap;connectable=0;overflow=hidden;fillColor=none;top=0;left=0;bottom=0;right=0;pointerEvents=1;labelBackgroundColor=none;" parent="-d8aVRQF-1La3N2QzhJ9-217" vertex="1">
                    <mxGeometry x="187" width="93" height="40" as="geometry">
                        <mxRectangle width="93" height="40" as="alternateBounds"/>
                    </mxGeometry>
                </mxCell>
                <mxCell id="-d8aVRQF-1La3N2QzhJ9-243" value="Voto Appelli" style="shape=table;startSize=30;container=1;collapsible=0;childLayout=tableLayout;labelBackgroundColor=none;" parent="1" vertex="1">
                    <mxGeometry x="-377.5" y="1000" width="445" height="310" as="geometry"/>
                </mxCell>
                <mxCell id="-d8aVRQF-1La3N2QzhJ9-244" value="" style="shape=tableRow;horizontal=0;startSize=0;swimlaneHead=0;swimlaneBody=0;top=0;left=0;bottom=0;right=0;collapsible=0;dropTarget=0;fillColor=none;points=[[0,0.5],[1,0.5]];portConstraint=eastwest;labelBackgroundColor=none;" parent="-d8aVRQF-1La3N2QzhJ9-243" vertex="1">
                    <mxGeometry y="30" width="445" height="40" as="geometry"/>
                </mxCell>
                <mxCell id="-d8aVRQF-1La3N2QzhJ9-245" value="ID" style="shape=partialRectangle;html=1;whiteSpace=wrap;connectable=0;overflow=hidden;fillColor=none;top=0;left=0;bottom=0;right=0;pointerEvents=1;labelBackgroundColor=none;" parent="-d8aVRQF-1La3N2QzhJ9-244" vertex="1">
                    <mxGeometry width="148" height="40" as="geometry">
                        <mxRectangle width="148" height="40" as="alternateBounds"/>
                    </mxGeometry>
                </mxCell>
                <mxCell id="-d8aVRQF-1La3N2QzhJ9-246" value="Appelli_Studente_ID" style="shape=partialRectangle;html=1;whiteSpace=wrap;connectable=0;overflow=hidden;fillColor=none;top=0;left=0;bottom=0;right=0;pointerEvents=1;labelBackgroundColor=none;" parent="-d8aVRQF-1La3N2QzhJ9-244" vertex="1">
                    <mxGeometry x="148" width="149" height="40" as="geometry">
                        <mxRectangle width="149" height="40" as="alternateBounds"/>
                    </mxGeometry>
                </mxCell>
                <mxCell id="-d8aVRQF-1La3N2QzhJ9-247" value="Voti" style="shape=partialRectangle;html=1;whiteSpace=wrap;connectable=0;overflow=hidden;fillColor=none;top=0;left=0;bottom=0;right=0;pointerEvents=1;labelBackgroundColor=none;" parent="-d8aVRQF-1La3N2QzhJ9-244" vertex="1">
                    <mxGeometry x="297" width="148" height="40" as="geometry">
                        <mxRectangle width="148" height="40" as="alternateBounds"/>
                    </mxGeometry>
                </mxCell>
                <mxCell id="-d8aVRQF-1La3N2QzhJ9-248" value="" style="shape=tableRow;horizontal=0;startSize=0;swimlaneHead=0;swimlaneBody=0;top=0;left=0;bottom=0;right=0;collapsible=0;dropTarget=0;fillColor=none;points=[[0,0.5],[1,0.5]];portConstraint=eastwest;labelBackgroundColor=none;" parent="-d8aVRQF-1La3N2QzhJ9-243" vertex="1">
                    <mxGeometry y="70" width="445" height="40" as="geometry"/>
                </mxCell>
                <mxCell id="-d8aVRQF-1La3N2QzhJ9-249" value="1" style="shape=partialRectangle;html=1;whiteSpace=wrap;connectable=0;overflow=hidden;fillColor=none;top=0;left=0;bottom=0;right=0;pointerEvents=1;labelBackgroundColor=none;" parent="-d8aVRQF-1La3N2QzhJ9-248" vertex="1">
                    <mxGeometry width="148" height="40" as="geometry">
                        <mxRectangle width="148" height="40" as="alternateBounds"/>
                    </mxGeometry>
                </mxCell>
                <mxCell id="-d8aVRQF-1La3N2QzhJ9-250" value="1" style="shape=partialRectangle;html=1;whiteSpace=wrap;connectable=0;overflow=hidden;fillColor=none;top=0;left=0;bottom=0;right=0;pointerEvents=1;labelBackgroundColor=none;" parent="-d8aVRQF-1La3N2QzhJ9-248" vertex="1">
                    <mxGeometry x="148" width="149" height="40" as="geometry">
                        <mxRectangle width="149" height="40" as="alternateBounds"/>
                    </mxGeometry>
                </mxCell>
                <mxCell id="-d8aVRQF-1La3N2QzhJ9-251" value="22" style="shape=partialRectangle;html=1;whiteSpace=wrap;connectable=0;overflow=hidden;fillColor=none;top=0;left=0;bottom=0;right=0;pointerEvents=1;labelBackgroundColor=none;" parent="-d8aVRQF-1La3N2QzhJ9-248" vertex="1">
                    <mxGeometry x="297" width="148" height="40" as="geometry">
                        <mxRectangle width="148" height="40" as="alternateBounds"/>
                    </mxGeometry>
                </mxCell>
                <mxCell id="-d8aVRQF-1La3N2QzhJ9-252" value="" style="shape=tableRow;horizontal=0;startSize=0;swimlaneHead=0;swimlaneBody=0;top=0;left=0;bottom=0;right=0;collapsible=0;dropTarget=0;fillColor=none;points=[[0,0.5],[1,0.5]];portConstraint=eastwest;labelBackgroundColor=none;" parent="-d8aVRQF-1La3N2QzhJ9-243" vertex="1">
                    <mxGeometry y="110" width="445" height="40" as="geometry"/>
                </mxCell>
                <mxCell id="-d8aVRQF-1La3N2QzhJ9-253" value="2" style="shape=partialRectangle;html=1;whiteSpace=wrap;connectable=0;overflow=hidden;fillColor=none;top=0;left=0;bottom=0;right=0;pointerEvents=1;labelBackgroundColor=none;" parent="-d8aVRQF-1La3N2QzhJ9-252" vertex="1">
                    <mxGeometry width="148" height="40" as="geometry">
                        <mxRectangle width="148" height="40" as="alternateBounds"/>
                    </mxGeometry>
                </mxCell>
                <mxCell id="-d8aVRQF-1La3N2QzhJ9-254" value="2" style="shape=partialRectangle;html=1;whiteSpace=wrap;connectable=0;overflow=hidden;fillColor=none;top=0;left=0;bottom=0;right=0;pointerEvents=1;labelBackgroundColor=none;" parent="-d8aVRQF-1La3N2QzhJ9-252" vertex="1">
                    <mxGeometry x="148" width="149" height="40" as="geometry">
                        <mxRectangle width="149" height="40" as="alternateBounds"/>
                    </mxGeometry>
                </mxCell>
                <mxCell id="-d8aVRQF-1La3N2QzhJ9-255" value="29" style="shape=partialRectangle;html=1;whiteSpace=wrap;connectable=0;overflow=hidden;fillColor=none;top=0;left=0;bottom=0;right=0;pointerEvents=1;labelBackgroundColor=none;" parent="-d8aVRQF-1La3N2QzhJ9-252" vertex="1">
                    <mxGeometry x="297" width="148" height="40" as="geometry">
                        <mxRectangle width="148" height="40" as="alternateBounds"/>
                    </mxGeometry>
                </mxCell>
                <mxCell id="-d8aVRQF-1La3N2QzhJ9-256" value="" style="shape=tableRow;horizontal=0;startSize=0;swimlaneHead=0;swimlaneBody=0;top=0;left=0;bottom=0;right=0;collapsible=0;dropTarget=0;fillColor=none;points=[[0,0.5],[1,0.5]];portConstraint=eastwest;labelBackgroundColor=none;" parent="-d8aVRQF-1La3N2QzhJ9-243" vertex="1">
                    <mxGeometry y="150" width="445" height="40" as="geometry"/>
                </mxCell>
                <mxCell id="-d8aVRQF-1La3N2QzhJ9-257" value="3" style="shape=partialRectangle;html=1;whiteSpace=wrap;connectable=0;overflow=hidden;fillColor=none;top=0;left=0;bottom=0;right=0;pointerEvents=1;labelBackgroundColor=none;" parent="-d8aVRQF-1La3N2QzhJ9-256" vertex="1">
                    <mxGeometry width="148" height="40" as="geometry">
                        <mxRectangle width="148" height="40" as="alternateBounds"/>
                    </mxGeometry>
                </mxCell>
                <mxCell id="-d8aVRQF-1La3N2QzhJ9-258" value="3" style="shape=partialRectangle;html=1;whiteSpace=wrap;connectable=0;overflow=hidden;fillColor=none;top=0;left=0;bottom=0;right=0;pointerEvents=1;labelBackgroundColor=none;" parent="-d8aVRQF-1La3N2QzhJ9-256" vertex="1">
                    <mxGeometry x="148" width="149" height="40" as="geometry">
                        <mxRectangle width="149" height="40" as="alternateBounds"/>
                    </mxGeometry>
                </mxCell>
                <mxCell id="-d8aVRQF-1La3N2QzhJ9-259" value="30" style="shape=partialRectangle;html=1;whiteSpace=wrap;connectable=0;overflow=hidden;fillColor=none;top=0;left=0;bottom=0;right=0;pointerEvents=1;labelBackgroundColor=none;" parent="-d8aVRQF-1La3N2QzhJ9-256" vertex="1">
                    <mxGeometry x="297" width="148" height="40" as="geometry">
                        <mxRectangle width="148" height="40" as="alternateBounds"/>
                    </mxGeometry>
                </mxCell>
                <mxCell id="-d8aVRQF-1La3N2QzhJ9-260" value="" style="shape=tableRow;horizontal=0;startSize=0;swimlaneHead=0;swimlaneBody=0;top=0;left=0;bottom=0;right=0;collapsible=0;dropTarget=0;fillColor=none;points=[[0,0.5],[1,0.5]];portConstraint=eastwest;labelBackgroundColor=none;" parent="-d8aVRQF-1La3N2QzhJ9-243" vertex="1">
                    <mxGeometry y="190" width="445" height="40" as="geometry"/>
                </mxCell>
                <mxCell id="-d8aVRQF-1La3N2QzhJ9-261" value="4" style="shape=partialRectangle;html=1;whiteSpace=wrap;connectable=0;overflow=hidden;fillColor=none;top=0;left=0;bottom=0;right=0;pointerEvents=1;labelBackgroundColor=none;" parent="-d8aVRQF-1La3N2QzhJ9-260" vertex="1">
                    <mxGeometry width="148" height="40" as="geometry">
                        <mxRectangle width="148" height="40" as="alternateBounds"/>
                    </mxGeometry>
                </mxCell>
                <mxCell id="-d8aVRQF-1La3N2QzhJ9-262" value="4" style="shape=partialRectangle;html=1;whiteSpace=wrap;connectable=0;overflow=hidden;fillColor=none;top=0;left=0;bottom=0;right=0;pointerEvents=1;labelBackgroundColor=none;" parent="-d8aVRQF-1La3N2QzhJ9-260" vertex="1">
                    <mxGeometry x="148" width="149" height="40" as="geometry">
                        <mxRectangle width="149" height="40" as="alternateBounds"/>
                    </mxGeometry>
                </mxCell>
                <mxCell id="-d8aVRQF-1La3N2QzhJ9-263" value="19" style="shape=partialRectangle;html=1;whiteSpace=wrap;connectable=0;overflow=hidden;fillColor=none;top=0;left=0;bottom=0;right=0;pointerEvents=1;labelBackgroundColor=none;" parent="-d8aVRQF-1La3N2QzhJ9-260" vertex="1">
                    <mxGeometry x="297" width="148" height="40" as="geometry">
                        <mxRectangle width="148" height="40" as="alternateBounds"/>
                    </mxGeometry>
                </mxCell>
                <mxCell id="-d8aVRQF-1La3N2QzhJ9-264" value="" style="shape=tableRow;horizontal=0;startSize=0;swimlaneHead=0;swimlaneBody=0;top=0;left=0;bottom=0;right=0;collapsible=0;dropTarget=0;fillColor=none;points=[[0,0.5],[1,0.5]];portConstraint=eastwest;labelBackgroundColor=none;" parent="-d8aVRQF-1La3N2QzhJ9-243" vertex="1">
                    <mxGeometry y="230" width="445" height="40" as="geometry"/>
                </mxCell>
                <mxCell id="-d8aVRQF-1La3N2QzhJ9-265" value="5" style="shape=partialRectangle;html=1;whiteSpace=wrap;connectable=0;overflow=hidden;fillColor=none;top=0;left=0;bottom=0;right=0;pointerEvents=1;labelBackgroundColor=none;" parent="-d8aVRQF-1La3N2QzhJ9-264" vertex="1">
                    <mxGeometry width="148" height="40" as="geometry">
                        <mxRectangle width="148" height="40" as="alternateBounds"/>
                    </mxGeometry>
                </mxCell>
                <mxCell id="-d8aVRQF-1La3N2QzhJ9-266" value="5" style="shape=partialRectangle;html=1;whiteSpace=wrap;connectable=0;overflow=hidden;fillColor=none;top=0;left=0;bottom=0;right=0;pointerEvents=1;labelBackgroundColor=none;" parent="-d8aVRQF-1La3N2QzhJ9-264" vertex="1">
                    <mxGeometry x="148" width="149" height="40" as="geometry">
                        <mxRectangle width="149" height="40" as="alternateBounds"/>
                    </mxGeometry>
                </mxCell>
                <mxCell id="-d8aVRQF-1La3N2QzhJ9-267" value="18" style="shape=partialRectangle;html=1;whiteSpace=wrap;connectable=0;overflow=hidden;fillColor=none;top=0;left=0;bottom=0;right=0;pointerEvents=1;labelBackgroundColor=none;" parent="-d8aVRQF-1La3N2QzhJ9-264" vertex="1">
                    <mxGeometry x="297" width="148" height="40" as="geometry">
                        <mxRectangle width="148" height="40" as="alternateBounds"/>
                    </mxGeometry>
                </mxCell>
                <mxCell id="-d8aVRQF-1La3N2QzhJ9-268" value="" style="shape=tableRow;horizontal=0;startSize=0;swimlaneHead=0;swimlaneBody=0;top=0;left=0;bottom=0;right=0;collapsible=0;dropTarget=0;fillColor=none;points=[[0,0.5],[1,0.5]];portConstraint=eastwest;labelBackgroundColor=none;" parent="-d8aVRQF-1La3N2QzhJ9-243" vertex="1">
                    <mxGeometry y="270" width="445" height="40" as="geometry"/>
                </mxCell>
                <mxCell id="-d8aVRQF-1La3N2QzhJ9-269" value="6" style="shape=partialRectangle;html=1;whiteSpace=wrap;connectable=0;overflow=hidden;fillColor=none;top=0;left=0;bottom=0;right=0;pointerEvents=1;labelBackgroundColor=none;" parent="-d8aVRQF-1La3N2QzhJ9-268" vertex="1">
                    <mxGeometry width="148" height="40" as="geometry">
                        <mxRectangle width="148" height="40" as="alternateBounds"/>
                    </mxGeometry>
                </mxCell>
                <mxCell id="-d8aVRQF-1La3N2QzhJ9-270" value="6" style="shape=partialRectangle;html=1;whiteSpace=wrap;connectable=0;overflow=hidden;fillColor=none;top=0;left=0;bottom=0;right=0;pointerEvents=1;labelBackgroundColor=none;" parent="-d8aVRQF-1La3N2QzhJ9-268" vertex="1">
                    <mxGeometry x="148" width="149" height="40" as="geometry">
                        <mxRectangle width="149" height="40" as="alternateBounds"/>
                    </mxGeometry>
                </mxCell>
                <mxCell id="-d8aVRQF-1La3N2QzhJ9-271" value="30" style="shape=partialRectangle;html=1;whiteSpace=wrap;connectable=0;overflow=hidden;fillColor=none;top=0;left=0;bottom=0;right=0;pointerEvents=1;labelBackgroundColor=none;" parent="-d8aVRQF-1La3N2QzhJ9-268" vertex="1">
                    <mxGeometry x="297" width="148" height="40" as="geometry">
                        <mxRectangle width="148" height="40" as="alternateBounds"/>
                    </mxGeometry>
                </mxCell>
                <mxCell id="-d8aVRQF-1La3N2QzhJ9-272" value="" style="endArrow=none;html=1;rounded=0;exitX=0.464;exitY=-0.003;exitDx=0;exitDy=0;exitPerimeter=0;" parent="1" source="-d8aVRQF-1La3N2QzhJ9-243" edge="1">
                    <mxGeometry width="50" height="50" relative="1" as="geometry">
                        <mxPoint x="-220" y="890" as="sourcePoint"/>
                        <mxPoint x="-170" y="840" as="targetPoint"/>
                    </mxGeometry>
                </mxCell>
            </root>
        </mxGraphModel>
    </diagram>
</mxfile>